<svg width="24" height="24" viewBox="0 0 24 24" >
<path d="M14.18 11.57L20.7 5.20001H16.52L12.53 9.90001L14.18 11.57Z" />
<path d="M13.54 12.23L11.91 10.64L9.82 8.64002C10.1549 8.05059 10.2873 7.36763 10.197 6.69575C10.1067 6.02387 9.79862 5.40012 9.32 4.92002C8.72801 4.35283 7.93984 4.03619 7.12 4.03619C6.30015 4.03619 5.51198 4.35283 4.92 4.92002C4.62974 5.20817 4.39937 5.55091 4.24217 5.92849C4.08496 6.30607 4.00403 6.71103 4.00403 7.12002C4.00403 7.52902 4.08496 7.93398 4.24217 8.31156C4.39937 8.68913 4.62974 9.03187 4.92 9.32002C5.21484 9.61002 5.56525 9.83745 5.95017 9.98867C6.33509 10.1399 6.7466 10.2118 7.16 10.2C7.64851 10.192 8.12822 10.0687 8.56 9.84002L10.56 12.2L8.44 14.7C7.8613 14.4363 7.21697 14.3515 6.58976 14.4567C5.96255 14.5618 5.38107 14.852 4.92 15.29C4.33519 15.8735 4.00613 16.6654 4.00519 17.4915C4.00473 17.9005 4.08483 18.3057 4.24094 18.6837C4.39704 19.0618 4.62609 19.4055 4.915 19.695C5.2039 19.9846 5.54702 20.2144 5.92474 20.3714C6.30247 20.5283 6.70742 20.6094 7.11646 20.6098C7.94256 20.6108 8.73519 20.2835 9.32 19.7C9.60962 19.4117 9.83918 19.0688 9.99538 18.6912C10.1516 18.3136 10.2313 17.9087 10.23 17.5C10.2317 16.9276 10.0723 16.3662 9.77 15.88L11.93 13.77L16.76 19.42H20.94L13.54 12.23ZM8.26 8.23002C7.95298 8.52343 7.54467 8.68717 7.12 8.68717C6.69533 8.68717 6.28701 8.52343 5.98 8.23002C5.83003 8.08046 5.71104 7.90278 5.62985 7.70716C5.54867 7.51154 5.50688 7.30182 5.50688 7.09002C5.50688 6.87822 5.54867 6.66851 5.62985 6.47288C5.71104 6.27726 5.83003 6.09958 5.98 5.95002C6.12817 5.79762 6.30541 5.67647 6.50121 5.59375C6.69702 5.51102 6.90743 5.4684 7.12 5.4684C7.33256 5.4684 7.54297 5.51102 7.73878 5.59375C7.93458 5.67647 8.11182 5.79762 8.26 5.95002C8.56045 6.25337 8.729 6.66307 8.729 7.09002C8.729 7.51698 8.56045 7.92667 8.26 8.23002ZM8.26 18.7C7.95298 18.9934 7.54467 19.1572 7.12 19.1572C6.69533 19.1572 6.28701 18.9934 5.98 18.7C5.73278 18.476 5.56126 18.1807 5.48915 17.855C5.41703 17.5293 5.44789 17.1892 5.57745 16.8817C5.70701 16.5743 5.92888 16.3147 6.21238 16.1388C6.49588 15.963 6.82701 15.8795 7.16 15.9C7.48611 15.8969 7.80551 15.9928 8.07589 16.1752C8.34628 16.3575 8.5549 16.6177 8.67415 16.9212C8.79341 17.2248 8.81766 17.5574 8.7437 17.875C8.66974 18.1927 8.50107 18.4804 8.26 18.7ZM11.94 12.84C11.8233 12.84 11.7092 12.8054 11.6122 12.7406C11.5152 12.6758 11.4396 12.5836 11.3949 12.4758C11.3503 12.368 11.3386 12.2494 11.3613 12.1349C11.3841 12.0205 11.4403 11.9153 11.5228 11.8328C11.6053 11.7503 11.7104 11.6941 11.8249 11.6714C11.9393 11.6486 12.058 11.6603 12.1658 11.7049C12.2736 11.7496 12.3657 11.8252 12.4306 11.9222C12.4954 12.0193 12.53 12.1333 12.53 12.25C12.5153 12.3968 12.4469 12.5331 12.3381 12.6327C12.2293 12.7323 12.0875 12.7883 11.94 12.79V12.84Z" />
</svg>
