<svg width="24" height="24" viewBox="0 0 24 24" >
<path d="M19.62 4.58753C19.1937 4.1676 18.6183 3.93384 18.02 3.93753H14.51C14.514 3.27449 14.2544 2.63702 13.7884 2.16537C13.3223 1.69372 12.688 1.42651 12.025 1.42253C11.3619 1.41855 10.7245 1.67813 10.2528 2.14416C9.78116 2.61018 9.51396 3.24449 9.50998 3.90753H5.99998C5.40163 3.90384 4.82623 4.1376 4.39998 4.55753C4.18859 4.76291 4.02041 5.0085 3.90535 5.27984C3.79028 5.55118 3.73066 5.8428 3.72998 6.13753V20.3475C3.72895 20.6425 3.78779 20.9347 3.90296 21.2062C4.01812 21.4778 4.18721 21.7232 4.39998 21.9275C4.82623 22.3475 5.40163 22.5812 5.99998 22.5775H18C18.5983 22.5812 19.1737 22.3475 19.6 21.9275C19.8127 21.7232 19.9818 21.4778 20.097 21.2062C20.2122 20.9347 20.271 20.6425 20.27 20.3475V6.16753C20.2719 5.87421 20.2154 5.58344 20.1038 5.31218C19.9922 5.04091 19.8278 4.79458 19.62 4.58753ZM12.01 2.58753C12.2275 2.58556 12.4408 2.64815 12.6227 2.76737C12.8047 2.88659 12.9473 3.0571 13.0323 3.25733C13.1174 3.45757 13.1412 3.67853 13.1007 3.89228C13.0602 4.10603 12.9572 4.30297 12.8048 4.4582C12.6524 4.61343 12.4573 4.71997 12.2443 4.76435C12.0314 4.80873 11.81 4.78897 11.6083 4.70755C11.4065 4.62613 11.2334 4.48671 11.1109 4.30693C10.9884 4.12715 10.922 3.91508 10.92 3.69753C10.9132 3.55024 10.9364 3.40311 10.9881 3.26503C11.0399 3.12696 11.1191 3.00083 11.221 2.89425C11.3229 2.78768 11.4454 2.70289 11.581 2.64501C11.7166 2.58714 11.8625 2.55738 12.01 2.55753V2.58753ZM18.33 20.3775C18.33 20.4168 18.322 20.4557 18.3065 20.4918C18.2911 20.5279 18.2684 20.5604 18.24 20.5875C18.2117 20.6172 18.1775 20.6406 18.1396 20.6561C18.1017 20.6716 18.0609 20.6789 18.02 20.6775H6.01998C5.97903 20.6789 5.93825 20.6716 5.90033 20.6561C5.86241 20.6406 5.82821 20.6172 5.79998 20.5875C5.77154 20.5604 5.7489 20.5279 5.73343 20.4918C5.71796 20.4557 5.70998 20.4168 5.70998 20.3775V6.16753C5.70998 6.12826 5.71796 6.08939 5.73343 6.05329C5.7489 6.0172 5.77154 5.98462 5.79998 5.95753C5.86107 5.90488 5.93933 5.87642 6.01998 5.87753H7.33998V8.69753C7.33998 8.83014 7.39266 8.95732 7.48643 9.05108C7.58019 9.14485 7.70737 9.19753 7.83998 9.19753H16.18C16.3126 9.19753 16.4398 9.14485 16.5335 9.05108C16.6273 8.95732 16.68 8.83014 16.68 8.69753V5.87753H18.02C18.1006 5.87642 18.1789 5.90488 18.24 5.95753C18.2684 5.98462 18.2911 6.0172 18.3065 6.05329C18.322 6.08939 18.33 6.12826 18.33 6.16753V20.3775Z" />
</svg>
