<svg width="24" height="24" viewBox="0 0 24 24" >
<path d="M11.788 4.88256C11.8614 4.73391 12.0733 4.73391 12.1467 4.88256L14.2706 9.18597C14.2997 9.245 14.356 9.28591 14.4212 9.29538L19.1703 9.98546C19.3343 10.0093 19.3998 10.2109 19.2811 10.3266L15.8446 13.6763C15.7975 13.7223 15.776 13.7885 15.7871 13.8534L16.5983 18.5833C16.6264 18.7466 16.4549 18.8712 16.3082 18.7941L12.0604 16.5609C12.0022 16.5303 11.9326 16.5303 11.8743 16.5609L7.62658 18.7941C7.47985 18.8712 7.30837 18.7466 7.33639 18.5833L8.14763 13.8534C8.15876 13.7885 8.13725 13.7223 8.09011 13.6763L4.65363 10.3266C4.53493 10.2109 4.60043 10.0093 4.76448 9.98546L9.51357 9.29538C9.57871 9.28591 9.63503 9.245 9.66416 9.18597L11.788 4.88256Z" />
</svg>
