<svg width="24" height="24" viewBox="0 0 24 24" >
<path d="M20.1545 5.39252C19.727 4.97443 19.1524 4.741 18.5545 4.74252H9.02448C8.42655 4.741 7.85195 4.97443 7.42448 5.39252C7.00392 5.811 6.76656 6.37923 6.76448 6.97252V20.4025C6.76386 20.6965 6.82191 20.9877 6.93524 21.259C7.04857 21.5303 7.2149 21.7763 7.42448 21.9825C7.85195 22.4006 8.42655 22.634 9.02448 22.6325H18.5545C19.1524 22.634 19.727 22.4006 20.1545 21.9825C20.3641 21.7763 20.5304 21.5303 20.6437 21.259C20.757 20.9877 20.8151 20.6965 20.8145 20.4025V6.97252C20.8124 6.37923 20.575 5.811 20.1545 5.39252ZM8.72448 6.97252C8.72448 6.93325 8.73246 6.89438 8.74793 6.85828C8.7634 6.82219 8.78604 6.78961 8.81448 6.76252C8.87147 6.70965 8.94676 6.68097 9.02448 6.68252H18.5545C18.6348 6.68315 18.7125 6.71139 18.7745 6.76252C18.8257 6.82055 18.8541 6.89515 18.8545 6.97252V20.4025C18.8541 20.4799 18.8257 20.5545 18.7745 20.6125C18.7455 20.6413 18.7112 20.664 18.6734 20.6794C18.6357 20.6949 18.5953 20.7027 18.5545 20.7025H9.02448C8.98502 20.7038 8.94577 20.6964 8.90949 20.6808C8.87321 20.6653 8.84078 20.642 8.81448 20.6125C8.78604 20.5854 8.7634 20.5529 8.74793 20.5168C8.73246 20.4807 8.72448 20.4418 8.72448 20.4025V6.97252Z" />
<path d="M15.5045 1.37252H6.50448C6.0558 1.34817 5.60673 1.41246 5.18291 1.56174C4.75909 1.71102 4.36885 1.94235 4.03448 2.24252C3.73627 2.57098 3.50802 2.95668 3.36361 3.37616C3.2192 3.79563 3.16166 4.2401 3.19448 4.68252V17.5825H5.19448V4.68252C5.17216 4.49407 5.18811 4.30305 5.24138 4.12091C5.29465 3.93877 5.38413 3.76925 5.50448 3.62252C5.79953 3.38333 6.17618 3.26855 6.55448 3.30252H15.5545L15.5045 1.37252Z" />
</svg>
