<svg width="24" height="24" viewBox="0 0 24 24" >
<path d="M20.39 6.39252C19.9625 5.97443 19.3879 5.741 18.79 5.74252H5.26001C4.66207 5.741 4.08747 5.97443 3.66 6.39252C3.23944 6.811 3.00208 7.37923 3 7.97252V19.4025C2.99938 19.6965 3.05743 19.9877 3.17076 20.259C3.28409 20.5303 3.45042 20.7763 3.66 20.9825C4.08747 21.4006 4.66207 21.634 5.26001 21.6325H18.79C19.3879 21.634 19.9625 21.4006 20.39 20.9825C20.5996 20.7763 20.7659 20.5303 20.8792 20.259C20.9926 19.9877 21.0506 19.6965 21.05 19.4025V7.97252C21.0479 7.37923 20.8106 6.811 20.39 6.39252ZM4.96001 7.97252C4.96001 7.93325 4.96798 7.89438 4.98345 7.85828C4.99892 7.82219 5.02157 7.78961 5.05001 7.76252C5.107 7.70965 5.18228 7.68097 5.26001 7.68252H18.79C18.8703 7.68315 18.948 7.71139 19.01 7.76252C19.0612 7.82055 19.0896 7.89515 19.09 7.97252V19.4025C19.0896 19.4799 19.0612 19.5545 19.01 19.6125C18.9811 19.6413 18.9467 19.664 18.909 19.6794C18.8712 19.6949 18.8308 19.7027 18.79 19.7025H5.26001C5.22055 19.7038 5.1813 19.6964 5.14502 19.6808C5.10873 19.6653 5.0763 19.642 5.05001 19.6125C5.02157 19.5854 4.99892 19.5529 4.98345 19.5168C4.96798 19.4807 4.96001 19.4418 4.96001 19.4025V7.97252Z" />
<path d="M6.23553 4.04545C6.23553 3.46807 6.70359 3 7.28098 3C7.85837 3 8.32644 3.46807 8.32644 4.04545V7.95455C8.32644 8.53193 7.85837 9 7.28098 9C6.70359 9 6.23553 8.53193 6.23553 7.95455V4.04545Z" />
<path d="M15.6446 4.04545C15.6446 3.46807 16.1127 3 16.6901 3C17.2675 3 17.7355 3.46807 17.7355 4.04545V7.95455C17.7355 8.53193 17.2675 9 16.6901 9C16.1127 9 15.6446 8.53193 15.6446 7.95455V4.04545Z" />
<path d="M4.23553 10H19.2355V12H4.23553V10Z" />
</svg>
