<svg width="24" height="24" viewBox="0 0 24 24" >
<path d="M17.2291 6.90208C16.4358 6.0574 15.1682 5.96246 14.2687 6.63377C13.7372 6.37699 13.1434 6.23343 12.5169 6.23343C12.1301 6.23343 11.7559 6.28812 11.4011 6.39038L12.5467 5.26053C14.2981 3.53328 17.0843 3.58791 18.7699 5.38254C20.4555 7.17718 20.4022 10.0322 18.6508 11.7595L15.0497 15.311C13.2983 17.0382 10.5121 16.9836 8.82648 15.189C8.61786 14.9669 8.43525 14.7276 8.27906 14.4754C8.19736 14.3435 8.12301 14.2082 8.056 14.0702L9.80022 12.5548C9.85743 12.7932 9.95215 13.0874 10.0846 13.3013C10.1645 13.4303 10.2585 13.5537 10.3672 13.6695C11.2339 14.5921 12.6663 14.6202 13.5668 13.7322L17.1679 10.1807C18.0683 9.29263 18.0957 7.82476 17.2291 6.90208Z" />
<path d="M6.77088 17.0979C7.56425 17.9426 8.83184 18.0375 9.73131 17.3662C10.2628 17.623 10.8566 17.7666 11.4831 17.7666C11.8699 17.7666 12.2441 17.7119 12.5989 17.6096L11.4533 18.7395C9.70194 20.4667 6.91574 20.4121 5.23014 18.6175C3.54454 16.8228 3.59784 13.9678 5.3492 12.2405L8.95035 8.689C10.7017 6.96175 13.4879 7.01637 15.1735 8.81101C15.3821 9.03312 15.5648 9.27239 15.7209 9.52458C15.8026 9.65651 15.877 9.79178 15.944 9.92978L14.1998 11.3821C14.1426 11.1436 14.0478 10.9126 13.9154 10.6987C13.8355 10.5697 13.7415 10.4463 13.6328 10.3305C12.7661 9.40786 11.3337 9.37978 10.4332 10.2678L6.8321 13.8193C5.93168 14.7074 5.90427 16.1752 6.77088 17.0979Z" />
</svg>
