<svg width="24" height="24" viewBox="0 0 24 24" >
<path fill-rule="evenodd" clip-rule="evenodd" d="M19 12.2759C19 15.9895 15.866 19 12 19C8.13401 19 5 15.9895 5 12.2759C5 8.56222 8.13401 5.55172 12 5.55172C15.866 5.55172 19 8.56222 19 12.2759ZM12 17.4483C14.9738 17.4483 17.3846 15.1325 17.3846 12.2759C17.3846 9.41921 14.9738 7.10344 12 7.10344C9.02616 7.10344 6.61538 9.41921 6.61538 12.2759C6.61538 15.1325 9.02616 17.4483 12 17.4483Z" />
<path d="M16.7115 12.2759H12.0001L12 7.74999C14.6923 7.74999 16.7115 10.3362 16.7115 12.2759Z" />
<path d="M7.96154 4H16.0385V5.55173H7.96154V4Z" />
</svg>
