<svg width="24" height="24" viewBox="0 0 24 24" >
<path d="M14 6.28564C14 7.39021 13.1046 8.28564 12 8.28564C10.8954 8.28564 10 7.39021 10 6.28564C10 5.18108 10.8954 4.28564 12 4.28564C13.1046 4.28564 14 5.18108 14 6.28564Z" />
<path d="M14 12C14 13.1046 13.1046 14 12 14C10.8954 14 10 13.1046 10 12C10 10.8954 10.8954 10 12 10C13.1046 10 14 10.8954 14 12Z" />
<path d="M14 17.7144C14 18.8189 13.1046 19.7144 12 19.7144C10.8954 19.7144 10 18.8189 10 17.7144C10 16.6098 10.8954 15.7144 12 15.7144C13.1046 15.7144 14 16.6098 14 17.7144Z" />
</svg>
