<svg width="24" height="24" viewBox="0 0 24 24" >
<path fill-rule="evenodd" clip-rule="evenodd" d="M19.9122 16.2429C20.0204 16.027 20.1173 15.8056 20.2026 15.5797C20.9717 13.8169 21.1526 11.8533 20.7184 9.9797C20.2843 8.1061 19.2581 6.42222 17.7919 5.17753C16.3258 3.93283 14.4977 3.19355 12.5786 3.06922C10.6594 2.94488 8.75121 3.44211 7.13675 4.48722C5.52228 5.53234 4.28742 7.06974 3.61513 8.87165C2.94283 10.6736 2.86885 12.6441 3.40417 14.4914C3.93948 16.3386 5.05561 17.9643 6.58717 19.1275C8.11874 20.2907 9.98427 20.9296 11.9074 20.9495H11.9471C12.6358 20.9494 13.3225 20.8761 13.9956 20.7307L14.095 20.7109V17.0484C14.095 17.0484 16.6208 19.6538 16.6705 19.6836C16.766 19.639 16.8589 19.5892 16.9489 19.5345C17.4754 19.1836 17.9651 18.7804 18.4107 18.3312L18.5797 18.1622L11.6787 11.3604V17.9901C8.51551 17.8012 6.00069 15.1352 6.06036 11.9371C6.09253 10.3713 6.7356 8.88017 7.85224 7.78208C8.96887 6.68399 10.4706 6.06602 12.0366 6.06012H12.1361C13.7211 6.08916 15.2302 6.74462 16.3333 7.88318C17.4364 9.02175 18.0439 10.5508 18.0229 12.136C18.0147 12.7833 17.9005 13.425 17.6848 14.0353L19.9122 16.2429Z" />
</svg>
