<svg width="24" height="24" viewBox="0 0 24 24" >
<path d="M12 5.85706C7.83333 5.85706 4.27499 8.40434 2.83333 12C4.27499 15.5957 7.83333 18.143 12 18.143C16.1667 18.143 19.725 15.5957 21.1667 12C19.725 8.40434 16.1667 5.85706 12 5.85706ZM12 16.0953C9.69999 16.0953 7.83333 14.2606 7.83333 12C7.83333 9.73941 9.69999 7.90471 12 7.90471C14.3 7.90471 16.1667 9.73941 16.1667 12C16.1667 14.2606 14.3 16.0953 12 16.0953Z" />
<path d="M15.2143 12.0001C15.2143 13.7753 13.7752 15.2144 12 15.2144C10.2248 15.2144 8.78566 13.7753 8.78566 12.0001C8.78566 10.2248 10.2248 8.78571 12 8.78571C13.7752 8.78571 15.2143 10.2248 15.2143 12.0001Z" />
</svg>
