<svg width="24" height="24" viewBox="0 0 24 24" >
<path d="M22.5454 15.0857C22.5456 14.1133 22.1648 13.1795 21.4846 12.4845C20.8044 11.7895 19.879 11.3887 18.9068 11.368C18.9068 11.3285 18.9068 11.2889 18.9068 11.2478C18.9066 9.80187 18.3887 8.40378 17.4469 7.30665C16.5051 6.20951 15.2016 5.48583 13.7724 5.26662C12.3432 5.04741 10.8827 5.34716 9.65534 6.11159C8.428 6.87603 7.51492 8.05463 7.08139 9.43404C6.78806 9.3781 6.49013 9.34977 6.19151 9.34941C4.93784 9.34679 3.73447 9.84229 2.84613 10.7269C1.95779 11.6116 1.45725 12.8128 1.45463 14.0665C1.45201 15.3202 1.94752 16.5236 2.83214 17.4119C3.71677 18.3002 4.91806 18.8008 6.17174 18.8034H18.9068C19.879 18.7827 20.8044 18.3819 21.4846 17.6869C22.1648 16.992 22.5456 16.0582 22.5454 15.0857Z" />
</svg>
