<svg width="24" height="24" viewBox="0 0 24 24" >
<path fill-rule="evenodd" clip-rule="evenodd" d="M5.61105 0.0189209C6.25446 0.0189209 6.77605 0.540509 6.77605 1.18392V4.42875C6.77605 5.07216 6.25446 5.59375 5.61105 5.59375C4.96764 5.59375 4.44605 5.07216 4.44605 4.42875V1.18392C4.44605 0.540509 4.96764 0.0189209 5.61105 0.0189209ZM9.54271 0.0189209C10.1861 0.0189209 10.7077 0.540509 10.7077 1.18392V4.42875C10.7077 5.07216 10.1861 5.59375 9.54271 5.59375C8.8993 5.59375 8.37771 5.07216 8.37771 4.42875V1.18392C8.37771 0.540509 8.8993 0.0189209 9.54271 0.0189209ZM13.4744 0.0189209C14.1178 0.0189209 14.6394 0.540509 14.6394 1.18392V4.42875C14.6394 5.07216 14.1178 5.59375 13.4744 5.59375C12.831 5.59375 12.3094 5.07216 12.3094 4.42875V1.18392C12.3094 0.540509 12.831 0.0189209 13.4744 0.0189209ZM0.514381 8.75518C0.514381 8.11177 1.03597 7.59018 1.67938 7.59018H18.389C19.7786 7.59018 21.0859 8.19864 22.0312 9.23886C22.9732 10.2754 23.4856 11.6593 23.4856 13.0816C23.4856 14.504 22.9732 15.8879 22.0312 16.9244C21.1272 17.9192 19.8921 18.5191 18.5705 18.5696C18.5517 19.9638 18.0409 21.3153 17.1167 22.3324C16.1714 23.3726 14.864 23.9811 13.4744 23.9811H5.61105C4.2214 23.9811 2.91407 23.3726 1.96877 22.3324C1.02683 21.2959 0.514381 19.912 0.514381 18.4897V8.75518ZM18.571 16.2361C19.2045 16.188 19.8238 15.889 20.3069 15.3574C20.8396 14.7711 21.1556 13.9541 21.1556 13.0816C21.1556 12.2091 20.8396 11.3921 20.3069 10.8059C19.8238 10.2742 19.2045 9.97525 18.571 9.9271V16.2361ZM16.241 9.92018V18.4897C16.241 19.3622 15.925 20.1792 15.3923 20.7654C14.863 21.3479 14.1702 21.6511 13.4744 21.6511H5.61105C4.91521 21.6511 4.22247 21.3479 3.69311 20.7654C3.16039 20.1792 2.84438 19.3622 2.84438 18.4897V9.92018H16.241Z" />
</svg>
