<svg width="24" height="24" viewBox="0 0 24 24" >
<path fill-rule="evenodd" clip-rule="evenodd" d="M11.8633 3.16496C10.4377 3.16496 9.09667 4.47298 9.09667 6.3264C9.09667 8.17981 10.4377 9.48783 11.8633 9.48783C13.2889 9.48783 14.63 8.17981 14.63 6.3264C14.63 4.47298 13.2889 3.16496 11.8633 3.16496ZM6.76667 6.3264C6.76667 3.40096 8.94614 0.834961 11.8633 0.834961C14.7805 0.834961 16.96 3.40096 16.96 6.3264C16.96 9.25183 14.7805 11.8178 11.8633 11.8178C8.94614 11.8178 6.76667 9.25183 6.76667 6.3264ZM4.28939 15.4629C5.2347 14.4227 6.54203 13.8143 7.93167 13.8143H15.795C17.1847 13.8143 18.492 14.4227 19.4373 15.4629C20.3792 16.4995 20.8917 17.8833 20.8917 19.3057V21.4689C20.8917 22.1123 20.3701 22.6339 19.7267 22.6339C19.0833 22.6339 18.5617 22.1123 18.5617 21.4689V19.3057C18.5617 18.4332 18.2457 17.6162 17.7129 17.03C17.1836 16.4474 16.4908 16.1443 15.795 16.1443H7.93167C7.23583 16.1443 6.5431 16.4474 6.01374 17.03C5.48101 17.6162 5.16501 18.4332 5.16501 19.3057V21.4689C5.16501 22.1123 4.64342 22.6339 4.00001 22.6339C3.35659 22.6339 2.83501 22.1123 2.83501 21.4689V19.3057C2.83501 17.8833 3.34745 16.4995 4.28939 15.4629Z" />
</svg>
