<svg width="24" height="24" viewBox="0 0 24 24" >
<path fill-rule="evenodd" clip-rule="evenodd" d="M8.52253 7.36335V7.13152C8.52253 5.97919 9.45668 5.04504 10.609 5.04504H13.391C14.5433 5.04504 15.4775 5.97919 15.4775 7.13152V7.36335H17.7958V9.68166H16.6366V16.8684C16.6366 18.0207 15.7025 18.9549 14.5501 18.9549H9.44985C8.29752 18.9549 7.36338 18.0207 7.36338 16.8684V9.68166H6.20422V7.36335H8.52253ZM10.609 6.71422H13.391C13.6214 6.71422 13.8083 6.90105 13.8083 7.13152V7.36335H10.1917V7.13152C10.1917 6.90105 10.3785 6.71422 10.609 6.71422ZM14.8978 10.2612H13.7387V16.057H14.8978V10.2612ZM9.10216 10.2612H10.2613V16.057H9.10216V10.2612ZM12.5796 10.2612H11.4204V16.057H12.5796V10.2612Z" />
</svg>
