<svg width="24" height="24" viewBox="0 0 24 24" >
<path fill-rule="evenodd" clip-rule="evenodd" d="M12 3.16496C11.1775 3.16496 10.3565 3.53136 9.72803 4.23841C9.09557 4.94994 8.72055 5.94145 8.72055 6.99996V9.83496H15.2794V6.99996C15.2794 5.94145 14.9044 4.94994 14.272 4.23841C13.6435 3.53136 12.8225 3.16496 12 3.16496ZM17.6094 9.83496V6.99996C17.6094 5.4063 17.048 3.85428 16.0134 2.69044C14.9749 1.52213 13.535 0.834961 12 0.834961C10.465 0.834961 9.02507 1.52213 7.98657 2.69044C6.95205 3.85428 6.39055 5.4063 6.39055 6.99996V9.83496H5.77778C4.02732 9.83496 2.835 11.3848 2.835 13V20C2.835 21.6152 4.02732 23.165 5.77778 23.165H18.2222C19.9727 23.165 21.165 21.6152 21.165 20V13C21.165 11.3848 19.9727 9.83496 18.2222 9.83496H17.6094ZM5.77778 12.165C5.56456 12.165 5.165 12.406 5.165 13V20C5.165 20.5939 5.56456 20.835 5.77778 20.835H18.2222C18.4354 20.835 18.835 20.5939 18.835 20V13C18.835 12.406 18.4354 12.165 18.2222 12.165H5.77778Z" />
</svg>
