<svg width="24" height="24" viewBox="0 0 24 24" >
<path fill-rule="evenodd" clip-rule="evenodd" d="M1.00584 3.26546C1.00584 2.62205 1.52742 2.10046 2.17084 2.10046H8.06834C9.45798 2.10046 10.7653 2.70892 11.7106 3.74914C11.8121 3.86081 11.9086 3.97652 12 4.09586C12.0914 3.97652 12.1879 3.86081 12.2894 3.74914C13.2347 2.70892 14.542 2.10046 15.9317 2.10046H21.8292C22.4726 2.10046 22.9942 2.62205 22.9942 3.26546V19.4896C22.9942 20.133 22.4726 20.6546 21.8292 20.6546H14.9488C14.5136 20.6546 14.0709 20.8438 13.7258 21.2235C13.3775 21.6069 13.165 22.1488 13.165 22.7344C13.165 23.3778 12.6434 23.8994 12 23.8994C11.3566 23.8994 10.835 23.3778 10.835 22.7344C10.835 22.1488 10.6226 21.6069 10.2742 21.2235C9.92914 20.8438 9.48641 20.6546 9.05125 20.6546H2.17084C1.52742 20.6546 1.00584 20.133 1.00584 19.4896V3.26546ZM10.835 18.7601C10.2887 18.4785 9.68115 18.3246 9.05125 18.3246H3.33584V4.43046H8.06834C8.76417 4.43046 9.45691 4.73365 9.98627 5.31615C10.519 5.90237 10.835 6.71937 10.835 7.5919V18.7601ZM13.165 18.7601C13.7113 18.4785 14.3189 18.3246 14.9488 18.3246H20.6642V4.43046H15.9317C15.2358 4.43046 14.5431 4.73365 14.0137 5.31615C13.481 5.90237 13.165 6.71937 13.165 7.5919V18.7601Z" />
</svg>
