<svg width="24" height="24" viewBox="0 0 24 24" >
<path d="M20.4189 8.95181C20.4189 8.86512 20.4189 8.77844 20.4189 8.69175C20.1588 6.2645 18.2517 4.35737 15.8244 4.35737C14.2641 4.35737 12.8771 5.13756 12.0102 6.43787C11.1433 5.22424 9.7563 4.44406 8.19593 4.44406C5.76868 4.44406 3.86155 6.35118 3.60149 8.77844C3.60149 8.86512 3.60149 8.95181 3.60149 9.0385C3.60149 9.12519 3.60149 9.21187 3.60149 9.29856C3.60149 9.64531 3.68817 10.0787 3.68817 10.4255C4.46836 15.4534 8.88943 17.3605 12.0102 19.8744C15.0442 17.3605 19.552 15.4534 20.3322 10.4255C20.4189 10.0787 20.4189 9.732 20.4189 9.29856C20.4189 9.12519 20.4189 9.0385 20.4189 8.95181Z" />
</svg>
