<svg width="24" height="24" viewBox="0 0 24 24" >
<path fill-rule="evenodd" clip-rule="evenodd" d="M7.6111 1.85005C8.18774 1.21551 8.99506 0.834961 9.86333 0.834961H13.795C14.6633 0.834961 15.4706 1.21551 16.0472 1.85005C16.6205 2.48088 16.9258 3.31454 16.9258 4.16318V5.1614H19.6925C21.524 5.1614 22.8233 6.75889 22.8233 8.48961V19.3057C22.8233 21.0364 21.524 22.6339 19.6925 22.6339H15.763C15.7623 22.6339 15.7615 22.6339 15.7608 22.6339C15.7601 22.6339 15.7594 22.6339 15.7587 22.6339H7.89963C7.89892 22.6339 7.89821 22.6339 7.8975 22.6339C7.89679 22.6339 7.89608 22.6339 7.89537 22.6339H3.96583C2.13433 22.6339 0.834999 21.0364 0.834999 19.3057V8.48961C0.834999 6.75889 2.13433 5.1614 3.96583 5.1614H6.7325V4.16318C6.7325 3.31454 7.03783 2.48088 7.6111 1.85005ZM6.7325 7.4914H3.96583C3.62593 7.4914 3.165 7.83091 3.165 8.48961V19.3057C3.165 19.9644 3.62593 20.3039 3.96583 20.3039H6.7325V7.4914ZM9.0625 20.3039V7.4914H14.5958V20.3039H9.0625ZM16.9258 20.3039H19.6925C20.0324 20.3039 20.4933 19.9644 20.4933 19.3057V8.48961C20.4933 7.83091 20.0324 7.4914 19.6925 7.4914H16.9258V20.3039ZM14.5958 5.1614H9.0625V4.16318C9.0625 3.86437 9.17139 3.59759 9.33545 3.41706C9.49614 3.24023 9.68886 3.16496 9.86333 3.16496H13.795C13.9695 3.16496 14.1622 3.24023 14.3229 3.41706C14.4869 3.59759 14.5958 3.86437 14.5958 4.16318V5.1614Z" />
</svg>
