<svg width="24" height="24" viewBox="0 0 24 24" >
<path fill-rule="evenodd" clip-rule="evenodd" d="M18.8364 12C18.8364 15.7756 15.7756 18.8364 12 18.8364C8.22438 18.8364 5.16364 15.7756 5.16364 12C5.16364 8.22438 8.22438 5.16364 12 5.16364C15.7756 5.16364 18.8364 8.22438 18.8364 12ZM12 17.0909C14.8116 17.0909 17.0909 14.8116 17.0909 12C17.0909 9.18837 14.8116 6.90909 12 6.90909C9.18837 6.90909 6.90909 9.18837 6.90909 12C6.90909 14.8116 9.18837 17.0909 12 17.0909Z" />
<path d="M4 11.1273H9.81818V12.8727H4V11.1273Z" />
<path d="M14.1818 11.1273H20V12.8727H14.1818V11.1273Z" />
<path d="M12.8727 4V9.81818H11.1272L11.1272 4L12.8727 4Z" />
<path d="M12.8727 14.1818V20H11.1272L11.1272 14.1818H12.8727Z" />
</svg>
