<svg width="24" height="24" viewBox="0 0 24 24" >
<path fill-rule="evenodd" clip-rule="evenodd" d="M7.6111 1.85005C8.18774 1.21551 8.99505 0.834961 9.86332 0.834961H13.795C14.6633 0.834961 15.4706 1.21551 16.0472 1.85005C16.6205 2.48088 16.9258 3.31454 16.9258 4.16318V5.1614H19.6925C21.524 5.1614 22.8233 6.75889 22.8233 8.48961V19.3057C22.8233 21.0364 21.524 22.6339 19.6925 22.6339H15.763L15.7608 22.6339L15.7587 22.6339H7.89962L7.89749 22.6339L7.89536 22.6339H3.96582C2.13433 22.6339 0.834991 21.0364 0.834991 19.3057V8.48961C0.834991 6.75889 2.13433 5.1614 3.96582 5.1614H6.73249V4.16318C6.73249 3.31454 7.03783 2.48088 7.6111 1.85005ZM6.73249 7.4914H3.96582C3.62592 7.4914 3.16499 7.83091 3.16499 8.48961V19.3057C3.16499 19.9644 3.62592 20.3039 3.96582 20.3039H6.73249V7.4914ZM9.06249 20.3039V7.4914H14.5958V20.3039H9.06249ZM16.9258 20.3039H19.6925C20.0324 20.3039 20.4933 19.9644 20.4933 19.3057V8.48961C20.4933 7.83091 20.0324 7.4914 19.6925 7.4914H16.9258V20.3039ZM14.5958 5.1614H9.06249V4.16318C9.06249 3.86437 9.17138 3.59759 9.33545 3.41706C9.49614 3.24023 9.68886 3.16496 9.86332 3.16496H13.795C13.9695 3.16496 14.1622 3.24023 14.3229 3.41706C14.4869 3.59759 14.5958 3.86437 14.5958 4.16318V5.1614Z" />
</svg>
