<svg width="24" height="24" viewBox="0 0 24 24" >
<path fill-rule="evenodd" clip-rule="evenodd" d="M5.61107 0.019043C6.25448 0.019043 6.77607 0.540631 6.77607 1.18404V4.42887C6.77607 5.07228 6.25448 5.59387 5.61107 5.59387C4.96766 5.59387 4.44607 5.07228 4.44607 4.42887V1.18404C4.44607 0.540631 4.96766 0.019043 5.61107 0.019043ZM9.54274 0.019043C10.1861 0.019043 10.7077 0.540631 10.7077 1.18404V4.42887C10.7077 5.07228 10.1861 5.59387 9.54274 5.59387C8.89932 5.59387 8.37774 5.07228 8.37774 4.42887V1.18404C8.37774 0.540631 8.89932 0.019043 9.54274 0.019043ZM13.4744 0.019043C14.1178 0.019043 14.6394 0.540631 14.6394 1.18404V4.42887C14.6394 5.07228 14.1178 5.59387 13.4744 5.59387C12.831 5.59387 12.3094 5.07228 12.3094 4.42887V1.18404C12.3094 0.540631 12.831 0.019043 13.4744 0.019043ZM0.514404 8.7553C0.514404 8.11189 1.03599 7.5903 1.6794 7.5903H18.389C19.7786 7.5903 21.086 8.19876 22.0313 9.23898C22.9732 10.2755 23.4857 11.6594 23.4857 13.0817C23.4857 14.5041 22.9732 15.888 22.0313 16.9245C21.1272 17.9193 19.8921 18.5192 18.5705 18.5697C18.5517 19.9639 18.041 21.3155 17.1167 22.3325C16.1714 23.3728 14.8641 23.9812 13.4744 23.9812H5.61107C4.22142 23.9812 2.91409 23.3728 1.96879 22.3325C1.02685 21.296 0.514404 19.9121 0.514404 18.4898V8.7553ZM18.5711 16.2363C19.2045 16.1881 19.8238 15.8891 20.3069 15.3575C20.8396 14.7713 21.1557 13.9543 21.1557 13.0817C21.1557 12.2092 20.8396 11.3922 20.3069 10.806C19.8238 10.2743 19.2045 9.97538 18.5711 9.92722V16.2363ZM16.2411 9.9203V18.4898C16.2411 19.3623 15.9251 20.1793 15.3923 20.7655C14.863 21.348 14.1702 21.6512 13.4744 21.6512H5.61107C4.91523 21.6512 4.22249 21.348 3.69314 20.7655C3.16041 20.1793 2.8444 19.3623 2.8444 18.4898V9.9203H16.2411Z" />
</svg>
