<svg width="24" height="24" viewBox="0 0 24 24" >
<path fill-rule="evenodd" clip-rule="evenodd" d="M5.13083 3.33C4.95637 3.33 4.76364 3.40527 4.60295 3.5821C4.43889 3.76263 4.33 4.02941 4.33 4.32822V19.4707C4.33 19.7695 4.43889 20.0363 4.60295 20.2169C4.76365 20.3937 4.95637 20.469 5.13083 20.469H18.8917C19.0661 20.469 19.2589 20.3937 19.4195 20.2169C19.5836 20.0363 19.6925 19.7695 19.6925 19.4707V11.8995C19.6925 11.2561 20.2141 10.7345 20.8575 10.7345C21.5009 10.7345 22.0225 11.2561 22.0225 11.8995V19.4707C22.0225 20.3194 21.7172 21.153 21.1439 21.7839C20.5673 22.4184 19.7599 22.799 18.8917 22.799H5.13083C4.26256 22.799 3.45524 22.4184 2.8786 21.7839C2.30533 21.153 2 20.3194 2 19.4707V4.32822C2 3.47958 2.30533 2.64592 2.8786 2.01509C3.45524 1.38055 4.26256 1 5.13083 1H15.9429C16.5863 1 17.1079 1.52159 17.1079 2.165C17.1079 2.80841 16.5863 3.33 15.9429 3.33H5.13083ZM22.6239 2.38443C23.1001 2.81715 23.1353 3.55395 22.7026 4.03011L12.8734 14.8462C12.6526 15.0892 12.3396 15.2277 12.0112 15.2277C11.6829 15.2277 11.3699 15.0892 11.1491 14.8462L8.20032 11.6014C7.76761 11.1252 7.80283 10.3884 8.27899 9.9557C8.75516 9.52298 9.49196 9.5582 9.92467 10.0344L12.0112 12.3304L20.9782 2.4631C21.411 1.98694 22.1478 1.95172 22.6239 2.38443Z" />
</svg>
