<svg width="24" height="24" viewBox="0 0 24 24" >
<path fill-rule="evenodd" clip-rule="evenodd" d="M11.8634 3.16496C10.4378 3.16496 9.09669 4.47298 9.09669 6.3264C9.09669 8.17981 10.4378 9.48783 11.8634 9.48783C13.289 9.48783 14.63 8.17981 14.63 6.3264C14.63 4.47298 13.289 3.16496 11.8634 3.16496ZM6.76669 6.3264C6.76669 3.40096 8.94616 0.834961 11.8634 0.834961C14.7806 0.834961 16.96 3.40096 16.96 6.3264C16.96 9.25183 14.7806 11.8178 11.8634 11.8178C8.94616 11.8178 6.76669 9.25183 6.76669 6.3264ZM4.28941 15.4629C5.23471 14.4227 6.54204 13.8143 7.93169 13.8143H15.795C17.1847 13.8143 18.492 14.4227 19.4373 15.4629C20.3792 16.4995 20.8917 17.8833 20.8917 19.3057V21.4689C20.8917 22.1123 20.3701 22.6339 19.7267 22.6339C19.0833 22.6339 18.5617 22.1123 18.5617 21.4689V19.3057C18.5617 18.4332 18.2457 17.6162 17.713 17.03C17.1836 16.4474 16.4909 16.1443 15.795 16.1443H7.93169C7.23585 16.1443 6.54311 16.4474 6.01375 17.03C5.48103 17.6162 5.16502 18.4332 5.16502 19.3057V21.4689C5.16502 22.1123 4.64343 22.6339 4.00002 22.6339C3.35661 22.6339 2.83502 22.1123 2.83502 21.4689V19.3057C2.83502 17.8833 3.34747 16.4995 4.28941 15.4629Z" />
</svg>
