<svg width="24" height="24" viewBox="0 0 24 24" >
<path fill-rule="evenodd" clip-rule="evenodd" d="M1.00584 3.26559C1.00584 2.62217 1.52742 2.10059 2.17084 2.10059H8.06834C9.45798 2.10059 10.7653 2.70904 11.7106 3.74926C11.8121 3.86093 11.9086 3.97664 12 4.09599C12.0914 3.97664 12.1879 3.86093 12.2894 3.74926C13.2347 2.70904 14.542 2.10059 15.9317 2.10059H21.8292C22.4726 2.10059 22.9942 2.62217 22.9942 3.26559V19.4897C22.9942 20.1331 22.4726 20.6547 21.8292 20.6547H14.9488C14.5136 20.6547 14.0709 20.8439 13.7258 21.2236C13.3775 21.607 13.165 22.1489 13.165 22.7345C13.165 23.378 12.6434 23.8995 12 23.8995C11.3566 23.8995 10.835 23.378 10.835 22.7345C10.835 22.1489 10.6226 21.607 10.2742 21.2236C9.92914 20.8439 9.48641 20.6547 9.05125 20.6547H2.17084C1.52742 20.6547 1.00584 20.1331 1.00584 19.4897V3.26559ZM10.835 18.7602C10.2887 18.4787 9.68115 18.3247 9.05125 18.3247H3.33584V4.43059H8.06834C8.76417 4.43059 9.45691 4.73377 9.98627 5.31627C10.519 5.90249 10.835 6.71949 10.835 7.59202V18.7602ZM13.165 18.7602C13.7113 18.4787 14.3189 18.3247 14.9488 18.3247H20.6642V4.43059H15.9317C15.2358 4.43059 14.5431 4.73377 14.0137 5.31627C13.481 5.90249 13.165 6.71949 13.165 7.59202V18.7602Z" />
</svg>
