<svg width="24" height="24" viewBox="0 0 24 24" >
<path fill-rule="evenodd" clip-rule="evenodd" d="M12 3.16496C7.12056 3.16496 3.16499 7.12052 3.16499 12C3.16499 16.8794 7.12056 20.835 12 20.835C16.8794 20.835 20.835 16.8794 20.835 12C20.835 7.12052 16.8794 3.16496 12 3.16496ZM0.834991 12C0.834991 5.8337 5.83373 0.834961 12 0.834961C18.1663 0.834961 23.165 5.8337 23.165 12C23.165 18.1662 18.1663 23.165 12 23.165C5.83373 23.165 0.834991 18.1662 0.834991 12ZM12.2302 8.1869C11.8031 8.11364 11.3638 8.19391 10.9902 8.41348C10.6166 8.63305 10.3328 8.97776 10.189 9.38656C9.97546 9.99351 9.31035 10.3125 8.70339 10.0989C8.09644 9.88543 7.77749 9.22032 7.99101 8.61336C8.31741 7.68549 8.96166 6.90309 9.80966 6.40471C10.6577 5.90633 11.6547 5.72416 12.6241 5.89044C13.5936 6.05673 14.4729 6.56075 15.1063 7.31323C15.7397 8.06558 16.0863 9.01777 16.085 10.0012C16.0844 11.619 14.8864 12.6725 14.0662 13.2193C13.6206 13.5164 13.1832 13.7342 12.8619 13.8771C12.6996 13.9492 12.5627 14.004 12.4636 14.0418C12.414 14.0607 12.3736 14.0754 12.344 14.0859L12.3076 14.0986L12.2958 14.1027L12.2916 14.1041L12.2898 14.1047C12.2895 14.1048 12.2884 14.1052 11.92 13L12.2884 14.1052C11.678 14.3086 11.0182 13.9788 10.8148 13.3684C10.6116 12.7589 10.9401 12.1003 11.5487 11.8957C11.5493 11.8955 11.5498 11.8953 11.5504 11.8951C11.5504 11.8951 11.5504 11.8952 11.5504 11.8951L11.5634 11.8906C11.5777 11.8855 11.6017 11.8768 11.6342 11.8644C11.6992 11.8396 11.7967 11.8007 11.9156 11.7479C12.1567 11.6407 12.4694 11.4835 12.7738 11.2806C13.4534 10.8275 13.755 10.3815 13.755 9.99996L13.755 9.99823C13.7556 9.56487 13.6029 9.14528 13.3238 8.81375C13.0447 8.48222 12.6573 8.26017 12.2302 8.1869ZM16.085 10.0012C16.085 10.0014 16.085 10.001 16.085 10.0012L14.92 9.99996H16.085C16.085 10.0004 16.085 10.0008 16.085 10.0012ZM10.835 17C10.835 16.3566 11.3566 15.835 12 15.835H12.01C12.6534 15.835 13.175 16.3566 13.175 17C13.175 17.6434 12.6534 18.165 12.01 18.165H12C11.3566 18.165 10.835 17.6434 10.835 17Z" />
</svg>
